# xmcd
#
# Track frame offsets: 
#        150
#        16224
#        30537
#        46605
#        68046
#        81400
#        95173
#        110558
#        126618
#        138858
#        151655
#        164102
#        180654
#        194895
#        214301
#        227177
#
# Disc length: 3323 seconds
#
# Revision: 0
# Processed by: cddbd v1.5.2PL0 Copyright (c) Steve Scherf et al.
# Submitted via: ExactAudioCopy v0.99pb5
#
DISCID=e70cf910
DTITLE=Various Artist - 100 70'er Hits [CD3]
DYEAR=2009
DGENRE=Rock
TTITLE0=The Jacksons - Blame It On The Boogie
TTITLE1=Wild Cherry - Play That Funky Music
TTITLE2=Earth Wind and Fire - September
TTITLE3=Billy Paul - Me And Mrs. Jones
TTITLE4=The Three Degrees - When Will I See You Again
TTITLE5=Sly and The Family Stone - Family Affair
TTITLE6=Harold Melvin and The Blue Notes Feat. Teddy Pendergrass - If Yo
TTITLE6=u Don't Know Me By Now
TTITLE7=David Essex - Gonna Make You A Star
TTITLE8=Redone - The Witch Queen Of New Orleans
TTITLE9=Bay City Rollers - Bye Bye Baby
TTITLE10=Christie - Yellow River
TTITLE11=Southside Johnny and The Asbury Jukes - I Don't Want To Go Home
TTITLE12=Edwin Hawkins Singers - Oh Happy Day
TTITLE13=Sarah Brightman And Hot Gossip - I Lost My Heart To A Starshi
TTITLE13=p Trooper
TTITLE14=Gnags - Under Bøgen
TTITLE15=Eric Carmen - All By Myself
EXTD=
EXTT0=
EXTT1=
EXTT2=
EXTT3=
EXTT4=
EXTT5=
EXTT6=
EXTT7=
EXTT8=
EXTT9=
EXTT10=
EXTT11=
EXTT12=
EXTT13=
EXTT14=
EXTT15=
PLAYORDER=
